<svg width="36" height="32" viewBox="0 0 36 32" fill="none" xmlns="http://www.w3.org/2000/svg">
<path d="M4.5 4C3.30653 4 2.16193 4.42143 1.31802 5.17157C0.474106 5.92172 0 6.93913 0 8L0 24.02C0.00594793 25.0774 0.482678 26.0897 1.32595 26.8355C2.16922 27.5813 3.31041 28 4.5 28H16.875C17.1734 28 17.4595 27.8946 17.6705 27.7071C17.8815 27.5196 18 27.2652 18 27C18 26.7348 17.8815 26.4804 17.6705 26.2929C17.4595 26.1054 17.1734 26 16.875 26H4.5C4.00472 26.0001 3.52326 25.8548 3.13029 25.5869C2.73731 25.3189 2.45478 24.9432 2.3265 24.518L15.0165 17.576L18 19.166L33.75 10.766V17C33.75 17.2652 33.8685 17.5196 34.0795 17.7071C34.2905 17.8946 34.5766 18 34.875 18C35.1734 18 35.4595 17.8946 35.6705 17.7071C35.8815 17.5196 36 17.2652 36 17V8C36 6.93913 35.5259 5.92172 34.682 5.17157C33.8381 4.42143 32.6935 4 31.5 4H4.5ZM12.843 16.416L2.25 22.21V10.766L12.843 16.416ZM2.25 8.434V8C2.25 7.46957 2.48705 6.96086 2.90901 6.58579C3.33097 6.21071 3.90326 6 4.5 6H31.5C32.0967 6 32.669 6.21071 33.091 6.58579C33.5129 6.96086 33.75 7.46957 33.75 8V8.434L18 16.834L2.25 8.434Z" fill="black"/>
<path d="M32.0557 28.538C34.3282 28.538 35.6265 26.824 35.6265 24.488V24.068C35.6265 20.86 32.94 18 28.17 18H28.0912C23.445 18 20.25 20.72 20.25 24.864V25.292C20.25 29.64 23.4855 32 27.8055 32H27.9045C29.241 32 30.195 31.852 30.6877 31.65V30.19C30.1365 30.41 29.1735 30.55 28.0327 30.55H27.9338C24.9323 30.55 22.149 28.974 22.149 25.24V24.926C22.149 21.612 24.5295 19.478 28.089 19.478H28.179C31.6328 19.478 33.768 21.578 33.768 24.13V24.366C33.768 26.316 33.039 27.146 32.3303 27.146C31.8083 27.146 31.4077 26.85 31.4077 26.306V21.926H29.3693V23.064H29.3017C29.1127 22.468 28.4738 21.804 27.1553 21.804C25.4048 21.804 24.3225 22.914 24.3225 24.604V25.66C24.3225 27.444 25.425 28.528 27.1575 28.528C28.2172 28.528 29.1735 28.074 29.439 27.242H29.5357C29.8012 28.082 30.924 28.538 32.0557 28.538ZM26.5365 25.362V24.908C26.5365 23.816 27.0472 23.326 27.8257 23.326C28.494 23.326 29.1128 23.71 29.1128 24.742V25.476C29.1128 26.622 28.5435 26.964 27.8438 26.964C27.0472 26.964 26.5365 26.534 26.5365 25.364V25.362Z" fill="black"/>
</svg>
