<svg width="20" height="20" viewBox="0 0 20 20" fill="none" xmlns="http://www.w3.org/2000/svg">
<path d="M10.625 3.35878C11.4425 2.49753 12.8525 2.25128 14.515 2.41878C16.0575 2.57378 17.6437 3.07253 18.75 3.53503V15.9388C17.6025 15.5013 16.1163 15.0738 14.6413 14.9263C13.2738 14.7875 11.7937 14.8775 10.625 15.5413V3.35878ZM10 2.22878C8.76875 1.17003 6.98375 1.01253 5.35875 1.17503C3.46625 1.36628 1.55625 2.01503 0.36625 2.55628C0.257061 2.60594 0.164469 2.68598 0.0995263 2.78683C0.0345834 2.88768 3.32143e-05 3.00508 0 3.12503L0 16.875C2.89525e-05 16.9796 0.0262964 17.0825 0.0763964 17.1743C0.126496 17.2661 0.198827 17.3438 0.286764 17.4004C0.3747 17.457 0.475431 17.4906 0.579729 17.4982C0.684028 17.5058 0.788559 17.4871 0.88375 17.4438C1.98625 16.9438 3.7625 16.3425 5.48375 16.1688C7.245 15.9913 8.72125 16.2775 9.5125 17.265C9.57106 17.338 9.64527 17.3969 9.72965 17.4374C9.81402 17.4779 9.90641 17.4989 10 17.4989C10.0936 17.4989 10.186 17.4779 10.2704 17.4374C10.3547 17.3969 10.4289 17.338 10.4875 17.265C11.2788 16.2775 12.755 15.9913 14.515 16.1688C16.2375 16.3425 18.015 16.9438 19.1163 17.4438C19.2114 17.4871 19.316 17.5058 19.4203 17.4982C19.5246 17.4906 19.6253 17.457 19.7132 17.4004C19.8012 17.3438 19.8735 17.2661 19.9236 17.1743C19.9737 17.0825 20 16.9796 20 16.875V3.12503C20 3.00508 19.9654 2.88768 19.9005 2.78683C19.8355 2.68598 19.7429 2.60594 19.6337 2.55628C18.4438 2.01503 16.5338 1.36628 14.6413 1.17503C13.0163 1.01128 11.2312 1.17003 10 2.22878Z" fill="black"/>
</svg>
