<svg width="36" height="33" viewBox="0 0 36 33" fill="none" xmlns="http://www.w3.org/2000/svg">
<path d="M36 16.5C36 16.5 29.25 5.15625 18 5.15625C6.75 5.15625 0 16.5 0 16.5C0 16.5 6.75 27.8438 18 27.8438C29.25 27.8438 36 16.5 36 16.5ZM2.63925 16.5C3.72551 14.9832 4.97692 13.5714 6.37425 12.2863C9.27 9.62775 13.23 7.21875 18 7.21875C22.77 7.21875 26.7278 9.62775 29.628 12.2863C31.0253 13.5714 32.2767 14.9832 33.363 16.5C33.234 16.6788 33.0877 16.8767 32.9243 17.094C32.1705 18.084 31.0568 19.404 29.628 20.7137C26.7278 23.3722 22.7677 25.7812 18 25.7812C13.2323 25.7812 9.27225 23.3722 6.372 20.7137C4.97467 19.4286 3.72551 18.0168 2.63925 16.5Z" fill="black"/>
<path d="M18 11.3438C16.5082 11.3438 15.0774 11.887 14.0225 12.854C12.9676 13.821 12.375 15.1325 12.375 16.5C12.375 17.8675 12.9676 19.179 14.0225 20.146C15.0774 21.113 16.5082 21.6562 18 21.6562C19.4918 21.6562 20.9226 21.113 21.9775 20.146C23.0324 19.179 23.625 17.8675 23.625 16.5C23.625 15.1325 23.0324 13.821 21.9775 12.854C20.9226 11.887 19.4918 11.3438 18 11.3438ZM10.125 16.5C10.125 14.5855 10.9547 12.7494 12.4315 11.3956C13.9084 10.0418 15.9114 9.28125 18 9.28125C20.0886 9.28125 22.0916 10.0418 23.5685 11.3956C25.0453 12.7494 25.875 14.5855 25.875 16.5C25.875 18.4145 25.0453 20.2506 23.5685 21.6044C22.0916 22.9582 20.0886 23.7188 18 23.7188C15.9114 23.7188 13.9084 22.9582 12.4315 21.6044C10.9547 20.2506 10.125 18.4145 10.125 16.5Z" fill="black"/>
</svg>
