<svg width="49" height="49" viewBox="0 0 49 49" fill="none" xmlns="http://www.w3.org/2000/svg">
<g clip-path="url(#clip0_31_6029)">
<path fill-rule="evenodd" clip-rule="evenodd" d="M0 0H3.0625V45.9375H49V49H0V0ZM45.3771 9.53356C45.5328 9.66099 45.6619 9.81786 45.7569 9.99521C45.852 10.1726 45.9112 10.3669 45.9311 10.5671C45.951 10.7674 45.9313 10.9696 45.873 11.1622C45.8147 11.3547 45.719 11.534 45.5914 11.6896L31.8102 28.5333C31.6747 28.6986 31.5062 28.8338 31.3153 28.93C31.1245 29.0263 30.9156 29.0815 30.7022 29.0922C30.4887 29.1029 30.2754 29.0688 30.0759 28.992C29.8764 28.9153 29.6952 28.7976 29.5439 28.6466L21.6213 20.7239L10.4248 36.1191C10.1798 36.4306 9.8237 36.635 9.43122 36.6893C9.03875 36.7437 8.64048 36.6438 8.32011 36.4107C7.99974 36.1775 7.78222 35.8293 7.71324 35.4391C7.64427 35.0489 7.72922 34.6472 7.95025 34.3184L20.2003 17.4746C20.3303 17.2955 20.4976 17.1467 20.6906 17.0385C20.8837 16.9303 21.0979 16.8652 21.3186 16.8477C21.5392 16.8302 21.761 16.8608 21.9687 16.9373C22.1764 17.0138 22.365 17.1344 22.5216 17.2909L30.5117 25.284L43.2211 9.74794C43.3485 9.59221 43.5054 9.46312 43.6827 9.36806C43.8601 9.27299 44.0544 9.21381 44.2546 9.1939C44.4549 9.17399 44.6571 9.19374 44.8497 9.25202C45.0422 9.31031 45.2215 9.40597 45.3771 9.53356Z" fill="black"/>
</g>
<defs>
<clipPath id="clip0_31_6029">
<rect width="49" height="49" fill="white"/>
</clipPath>
</defs>
</svg>
