<svg width="45" height="45" viewBox="0 0 45 45" fill="none" xmlns="http://www.w3.org/2000/svg">
<path d="M37.9688 8.4375C38.3417 8.4375 38.6994 8.58566 38.9631 8.84938C39.2268 9.1131 39.375 9.47079 39.375 9.84375V30.9375H5.625V9.84375C5.625 9.47079 5.77316 9.1131 6.03688 8.84938C6.3006 8.58566 6.65829 8.4375 7.03125 8.4375H37.9688ZM7.03125 5.625C5.91237 5.625 4.83931 6.06947 4.04814 6.86064C3.25697 7.65181 2.8125 8.72487 2.8125 9.84375V33.75H42.1875V9.84375C42.1875 8.72487 41.743 7.65181 40.9519 6.86064C40.1607 6.06947 39.0876 5.625 37.9688 5.625H7.03125ZM0 35.1562H45C45 36.2751 44.5555 37.3482 43.7644 38.1394C42.9732 38.9305 41.9001 39.375 40.7812 39.375H4.21875C3.09987 39.375 2.02681 38.9305 1.23564 38.1394C0.444474 37.3482 0 36.2751 0 35.1562Z" fill="black"/>
</svg>
