<svg width="45" height="45" viewBox="0 0 45 45" fill="none" xmlns="http://www.w3.org/2000/svg">
<path d="M36.5625 7.03125C36.5625 5.91237 37.007 4.83931 37.7981 4.04814C38.5893 3.25697 39.6624 2.8125 40.7812 2.8125C41.9001 2.8125 42.9732 3.25697 43.7644 4.04814C44.5555 4.83931 45 5.91237 45 7.03125V37.9688C45 39.0876 44.5555 40.1607 43.7644 40.9519C42.9732 41.743 41.9001 42.1875 40.7812 42.1875C39.6624 42.1875 38.5893 41.743 37.7981 40.9519C37.007 40.1607 36.5625 39.0876 36.5625 37.9688V37.3669C30.4819 33.8766 23.9344 32.1834 17.1225 31.5084L18.2616 39.1359C18.3381 39.5423 18.324 39.9605 18.2204 40.3608C18.1168 40.7611 17.9263 41.1337 17.6623 41.4519C17.3983 41.7702 17.0674 42.0263 16.6931 42.202C16.3188 42.3778 15.9104 42.4689 15.4969 42.4688H13.9556C13.4089 42.4687 12.8741 42.3093 12.4166 42.0101C11.959 41.7109 11.5986 41.2849 11.3794 40.7841L6.17625 30.9684L5.60812 30.96C4.11853 30.9452 2.69471 30.3442 1.64505 29.2872C0.59538 28.2301 0.00436456 26.8022 0 25.3125L0 19.6875C0.0050197 18.1977 0.59504 16.7695 1.64296 15.7105C2.69088 14.6515 4.11283 14.0466 5.6025 14.0259C7.93132 13.9942 10.2594 13.9239 12.5859 13.815C21.1444 13.3819 29.8772 11.4272 36.5625 7.63031V7.03125ZM39.375 7.03125V37.9688C39.375 38.3417 39.5232 38.6994 39.7869 38.9631C40.0506 39.2268 40.4083 39.375 40.7812 39.375C41.1542 39.375 41.5119 39.2268 41.7756 38.9631C42.0393 38.6994 42.1875 38.3417 42.1875 37.9688V7.03125C42.1875 6.65829 42.0393 6.3006 41.7756 6.03688C41.5119 5.77316 41.1542 5.625 40.7812 5.625C40.4083 5.625 40.0506 5.77316 39.7869 6.03688C39.5232 6.3006 39.375 6.65829 39.375 7.03125ZM36.5625 10.8281C29.97 14.2172 21.9122 16.0087 14.0625 16.5459V28.4513C14.5688 28.4794 15.0722 28.5131 15.5728 28.5525C22.7953 29.0841 29.8969 30.645 36.5625 34.1578V10.8281ZM11.25 28.3078V16.6922C9.38306 16.7605 7.51546 16.8093 5.6475 16.8384C4.89592 16.8473 4.17783 17.1507 3.64766 17.6835C3.11749 18.2163 2.81761 18.9359 2.8125 19.6875V25.3125C2.8125 26.8594 4.0725 28.1306 5.64188 28.1503C7.51198 28.1722 9.38161 28.2247 11.25 28.3078ZM9.40219 31.05L13.9275 39.5916L13.9556 39.6591H15.4969L15.4913 39.6197L14.2453 31.2778C12.632 31.1805 11.0175 31.1036 9.40219 31.0472V31.05Z" fill="white"/>
</svg>
