<svg width="74" height="67" viewBox="0 0 74 67" fill="none" xmlns="http://www.w3.org/2000/svg">
<path d="M42.5264 9.38916C42.5264 9.38916 37.3903 23.4214 39.8659 29.3689C42.3416 35.3164 54.5568 42.0427 54.5568 42.0427C54.5568 42.0427 41.4502 37.4789 35.5027 39.9546C29.5552 42.4302 21.9038 56.9366 21.9038 56.9366C21.9038 56.9366 27.3927 41.5389 24.9171 35.5914C22.4414 29.6439 10.4463 22.565 10.4463 22.565C10.4463 22.565 23.3327 27.4814 29.2803 25.0057C35.2278 22.5301 42.5264 9.38916 42.5264 9.38916Z" fill="#24303F"/>
<path d="M62.0304 28.4032C62.0304 28.4032 61.4737 35.7572 63.4475 38.25C65.4214 40.7427 72.1257 42.2985 72.1257 42.2985C72.1257 42.2985 65.2882 41.8894 62.7955 43.8632C60.3027 45.8371 58.6149 53.7538 58.6149 53.7538C58.6149 53.7538 59.156 45.7039 57.1822 43.2112C55.2083 40.7184 48.5612 38.9656 48.5612 38.9656C48.5612 38.9656 55.3415 39.5717 57.8342 37.5979C60.327 35.624 62.0304 28.4032 62.0304 28.4032Z" fill="#24303F"/>
</svg>
