<svg width="30" height="30" viewBox="0 0 30 30" fill="none" xmlns="http://www.w3.org/2000/svg">
<g clip-path="url(#clip0_31_5699)">
<path d="M6.85116 2.49055C6.74047 2.34817 6.60075 2.23096 6.44129 2.14672C6.28182 2.06249 6.10626 2.01314 5.92625 2.00197C5.74625 1.9908 5.56593 2.01805 5.39727 2.08192C5.22862 2.1458 5.07548 2.24482 4.94803 2.37243L3.00928 4.31305C2.10366 5.22055 1.76991 6.50493 2.16553 7.6318C3.8094 12.2951 6.4802 16.5294 9.98053 20.0218C13.4729 23.5221 17.7072 26.1929 22.3705 27.8368C23.4974 28.2324 24.7818 27.8987 25.6893 26.9931L27.628 25.0543C27.7556 24.9269 27.8547 24.7737 27.9185 24.6051C27.9824 24.4364 28.0097 24.2561 27.9985 24.0761C27.9873 23.8961 27.938 23.7205 27.8537 23.561C27.7695 23.4016 27.6523 23.2619 27.5099 23.1512L23.1843 19.7874C23.032 19.6697 22.8551 19.588 22.6668 19.5483C22.4784 19.5087 22.2836 19.5123 22.0968 19.5587L17.9905 20.5843C17.4424 20.7204 16.8684 20.7126 16.3241 20.5619C15.7798 20.4111 15.2837 20.1224 14.8837 19.7237L10.2787 15.1168C9.87962 14.717 9.59056 14.2209 9.43946 13.6766C9.28836 13.1323 9.28033 12.5582 9.41616 12.0099L10.4437 7.90368C10.4901 7.7169 10.4936 7.52203 10.454 7.33369C10.4144 7.14535 10.3326 6.96843 10.2149 6.81618L6.85116 2.49055ZM3.53241 0.958678C3.86052 0.630458 4.25471 0.375798 4.68879 0.211605C5.12288 0.0474133 5.58692 -0.022553 6.05012 0.00635257C6.51332 0.0352581 6.96507 0.162374 7.37537 0.379259C7.78567 0.596145 8.14514 0.897837 8.42991 1.2643L11.7937 5.58805C12.4105 6.38118 12.628 7.4143 12.3843 8.3893L11.3587 12.4956C11.306 12.7083 11.309 12.9309 11.3675 13.1421C11.426 13.3533 11.5379 13.5458 11.6924 13.7012L16.2993 18.3081C16.4548 18.4629 16.6477 18.575 16.8592 18.6335C17.0708 18.6919 17.2938 18.6948 17.5068 18.6418L21.6112 17.6162C22.0924 17.4966 22.5944 17.4876 23.0796 17.5899C23.5648 17.6922 24.0205 17.9031 24.4124 18.2068L28.7362 21.5706C30.2905 22.7799 30.433 25.0768 29.0418 26.4662L27.103 28.4049C25.7155 29.7924 23.6418 30.4018 21.7087 29.7212C16.7599 27.9823 12.2672 25.1495 8.56491 21.4337C4.84935 17.732 2.01657 13.2399 0.277406 8.2918C-0.401344 6.36055 0.208031 4.28493 1.59553 2.89743L3.53241 0.958678Z" fill="black"/>
<path fill-rule="evenodd" clip-rule="evenodd" d="M23.4375 1.875C23.6861 1.875 23.9246 1.97377 24.1004 2.14959C24.2762 2.3254 24.375 2.56386 24.375 2.8125V5.625H27.1875C27.4361 5.625 27.6746 5.72377 27.8504 5.89959C28.0262 6.0754 28.125 6.31386 28.125 6.5625C28.125 6.81114 28.0262 7.0496 27.8504 7.22541C27.6746 7.40123 27.4361 7.5 27.1875 7.5H24.375V10.3125C24.375 10.5611 24.2762 10.7996 24.1004 10.9754C23.9246 11.1512 23.6861 11.25 23.4375 11.25C23.1889 11.25 22.9504 11.1512 22.7746 10.9754C22.5988 10.7996 22.5 10.5611 22.5 10.3125V7.5H19.6875C19.4389 7.5 19.2004 7.40123 19.0246 7.22541C18.8488 7.0496 18.75 6.81114 18.75 6.5625C18.75 6.31386 18.8488 6.0754 19.0246 5.89959C19.2004 5.72377 19.4389 5.625 19.6875 5.625H22.5V2.8125C22.5 2.56386 22.5988 2.3254 22.7746 2.14959C22.9504 1.97377 23.1889 1.875 23.4375 1.875Z" fill="black"/>
</g>
<defs>
<clipPath id="clip0_31_5699">
<rect width="30" height="30" fill="white"/>
</clipPath>
</defs>
</svg>
